<?xml version="1.0" standalone="no"?>
<!DOCTYPE svg PUBLIC "-//W3C//DTD SVG 20010904//EN"
 "http://www.w3.org/TR/2001/REC-SVG-20010904/DTD/svg10.dtd">
<svg version="1.0" xmlns="http://www.w3.org/2000/svg"
 width="768.000000pt" height="768.000000pt" viewBox="0 0 768.000000 768.000000"
 preserveAspectRatio="xMidYMid meet">

<g transform="translate(0.000000,768.000000) scale(0.100000,-0.100000)"
fill="#000000" stroke="none">
<path d="M2464 5405 c-14 -11 -334 -550 -334 -563 0 -15 181 -297 190 -297 8
0 520 858 520 871 0 9 -364 -2 -376 -11z"/>
<path d="M0 4585 l0 -825 610 0 610 0 0 165 0 165 -410 0 -410 0 0 165 0 165
410 0 410 0 0 165 0 165 -410 0 -410 0 0 165 0 165 410 0 410 0 0 165 0 165
-610 0 -610 0 0 -825z"/>
<path d="M3110 5245 l0 -165 645 0 645 0 0 165 0 165 -645 0 -645 0 0 -165z"/>
<path d="M4670 4585 l0 -825 610 0 610 0 0 165 0 165 -412 2 -413 3 0 160 0
160 413 3 412 2 0 165 0 165 -410 0 -410 0 -5 23 c-3 12 -4 85 -3 162 l3 140
413 3 412 2 0 165 0 165 -610 0 -610 0 0 -825z"/>
<path d="M6160 4586 l0 -826 358 0 c197 0 396 5 442 10 344 42 597 254 690
580 31 107 38 289 16 401 -66 323 -279 548 -599 631 -75 19 -115 21 -494 25
l-413 5 0 -826z m762 483 c79 -17 134 -46 197 -105 69 -63 105 -127 131 -230
25 -98 25 -200 0 -299 -47 -182 -176 -307 -345 -335 -33 -5 -138 -10 -232 -10
l-173 0 0 495 0 495 185 0 c101 0 208 -5 237 -11z"/>
<path d="M3110 4585 l0 -165 645 0 645 0 0 165 0 165 -645 0 -645 0 0 -165z"/>
<path d="M1893 4447 c-39 -67 -137 -234 -218 -372 -81 -137 -156 -265 -167
-282 l-20 -33 190 0 190 0 63 108 c35 59 99 168 142 242 44 74 82 139 84 143
4 7 -173 303 -186 311 -3 2 -38 -51 -78 -117z"/>
<path d="M475 3404 c-131 -28 -229 -78 -311 -160 -218 -217 -215 -596 7 -814
214 -211 584 -213 794 -5 58 57 116 147 104 160 -4 3 -20 10 -38 15 -29 8 -32
6 -47 -25 -88 -185 -361 -280 -581 -203 -300 106 -416 481 -236 756 137 207
441 270 667 137 53 -31 130 -111 153 -159 14 -31 20 -35 42 -29 14 3 31 9 38
12 21 11 -27 91 -97 162 -74 75 -160 122 -268 144 -63 14 -182 18 -227 9z"/>
<path d="M1716 3394 c-204 -49 -362 -209 -411 -415 -46 -195 13 -409 149 -544
76 -76 151 -120 252 -145 367 -94 702 161 707 540 2 113 -13 180 -61 278 -109
225 -381 348 -636 286z m298 -86 c122 -40 213 -121 271 -241 133 -274 -3 -614
-280 -699 -96 -30 -217 -30 -307 1 -201 67 -328 252 -328 476 0 343 318 571
644 463z"/>
<path d="M2680 2840 l0 -570 360 0 360 0 0 35 0 35 -320 0 -320 0 0 535 0 535
-40 0 -40 0 0 -570z"/>
<path d="M3640 2840 l0 -570 360 0 360 0 0 35 0 35 -320 0 -320 0 0 535 0 535
-40 0 -40 0 0 -570z"/>
<path d="M4600 2840 l0 -570 370 0 370 0 0 35 0 35 -330 0 -330 0 0 230 0 230
330 0 330 0 0 35 0 35 -330 0 -330 0 0 235 0 235 330 0 330 0 0 35 0 35 -370
0 -370 0 0 -570z"/>
<path d="M5992 3390 c-98 -26 -163 -63 -243 -138 -113 -106 -169 -241 -169
-409 0 -169 52 -297 165 -409 146 -145 351 -197 559 -144 104 26 169 63 242
135 94 94 144 218 144 362 l0 73 -275 0 -275 0 0 -35 0 -35 240 0 c185 0 240
-3 240 -12 -1 -44 -34 -158 -61 -209 -78 -145 -226 -224 -419 -222 -230 3
-400 133 -465 357 -24 82 -17 249 13 326 29 73 98 163 161 210 220 166 570
106 699 -120 14 -25 26 -46 27 -47 3 -6 75 19 75 25 0 21 -66 116 -111 160
-132 130 -352 183 -547 132z"/>
<path d="M6940 2840 l0 -570 370 0 370 0 0 35 0 35 -330 0 -330 0 0 230 0 230
330 0 330 0 0 35 0 35 -330 0 -330 0 0 230 0 230 330 0 330 0 0 40 0 40 -370
0 -370 0 0 -570z"/>
</g>
</svg>
